<svg aria-hidden="true" style="position:absolute;width:0;height:0;overflow:hidden" xmlns="http://www.w3.org/2000/svg">
    <defs>
        <!-- СТРІЛКА ВПРАВО -->
        <symbol id="icon-arrow-circle-broken-right" viewBox="0 0 32 32">
            <path fill="none" stroke-linejoin="round" stroke-linecap="round" stroke-width="2.6"
                d="M4.451 9.333a13.328 13.328 0 0 1 11.55-6.667c7.364 0 13.333 5.97 13.333 13.333s-5.97 13.333-13.333 13.333a13.329 13.329 0 0 1-11.55-6.667" />
            <path fill="none" stroke-linejoin="round" stroke-linecap="round" stroke-width="2.6"
                d="M16 21.333 21.333 16 16 10.667M2.667 16h18.667" />
        </symbol>
        <!-- КАЛЕНДАР СІРИЙ -->
        <symbol id="icon-calendar-check-02" viewBox="0 0 32 32">
            <path fill="none" stroke="#84828a" style="stroke:var(--color1, #84828a)" stroke-linejoin="round"
                stroke-linecap="round" stroke-width="2.667"
                d="M28 13.333H4m24 3.334v-4.933c0-2.24 0-3.36-.436-4.216a3.991 3.991 0 0 0-1.748-1.748c-.856-.436-1.976-.436-4.216-.436H10.4c-2.24 0-3.36 0-4.216.436a3.991 3.991 0 0 0-1.748 1.748C4 8.374 4 9.494 4 11.734v11.2c0 2.24 0 3.36.436 4.216a3.991 3.991 0 0 0 1.748 1.748c.856.436 1.976.436 4.216.436H16m5.333-26.667V8M10.667 2.667V8m8.666 17.333L22 28l6-6" />
        </symbol>
        <!-- КАЛЕНДАР КАЛЕНДАР ХОВЕР -->
        <symbol id="icon-calendar-check-02-1" viewBox="0 0 32 32">
            <path fill="none" stroke="#3e85f3" style="stroke:var(--color2, #3e85f3)" stroke-linejoin="round"
                stroke-linecap="round" stroke-width="2.667"
                d="M28 13.333H4m24 3.334v-4.933c0-2.24 0-3.36-.436-4.216a3.991 3.991 0 0 0-1.748-1.748c-.856-.436-1.976-.436-4.216-.436H10.4c-2.24 0-3.36 0-4.216.436a3.991 3.991 0 0 0-1.748 1.748C4 8.374 4 9.494 4 11.734v11.2c0 2.24 0 3.36.436 4.216a3.991 3.991 0 0 0 1.748 1.748c.856.436 1.976.436 4.216.436H16m5.333-26.667V8M10.667 2.667V8m8.666 17.333L22 28l6-6" />
        </symbol>
        <!-- ПЛЮС ДОДАВАННЯ -->
        <symbol id="icon-icon" viewBox="0 0 32 32">
            <path fill="none" stroke-linejoin="round" stroke-linecap="round" stroke-width="2.667"
                d="M16 10.667v10.667M10.667 16h10.667m7.999 0c0 7.364-5.97 13.333-13.333 13.333S2.667 23.363 2.667 16C2.667 8.636 8.637 2.667 16 2.667S29.333 8.637 29.333 16z" />
        </symbol>
        <!-- МІСЯЦЬ -->
        <symbol id="icon-moon" viewBox="0 0 32 32">
            <path fill="#3e85f3" style="fill:var(--color2, #3e85f3)"
                d="M27.656 17.393c-.904.24-1.834.361-2.769.361-2.847 0-5.52-1.107-7.528-3.115a10.702 10.702 0 0 1-2.751-10.298 1.33 1.33 0 0 0-.943-1.63 1.345 1.345 0 0 0-.69 0A13.346 13.346 0 0 0 6.99 6.154c-5.197 5.197-5.197 13.657 0 18.857a13.26 13.26 0 0 0 9.429 3.907 13.245 13.245 0 0 0 9.427-3.905 13.343 13.343 0 0 0 3.444-5.988 1.33 1.33 0 0 0-.347-1.285 1.34 1.34 0 0 0-1.285-.346zm-3.696 5.735a10.594 10.594 0 0 1-7.542 3.124 10.585 10.585 0 0 1-7.544-3.125c-4.157-4.159-4.157-10.927 0-15.085a10.562 10.562 0 0 1 2.747-1.977 13.365 13.365 0 0 0 3.854 10.464 13.29 13.29 0 0 0 10.464 3.854 10.704 10.704 0 0 1-1.979 2.745z" />
        </symbol>
        <!-- КАРАНДАШ -->
        <symbol id="icon-pencil-01" viewBox="0 0 32 32">
            <path fill="none" stroke-linejoin="round" stroke-linecap="round" stroke-width="2.6"
                d="m3.333 28.667 7.399-2.846c.473-.182.71-.273.931-.392.197-.106.384-.227.56-.364.198-.154.378-.333.736-.692l15.04-15.04A3.77 3.77 0 1 0 22.666 4L7.626 19.04c-.359.359-.538.538-.692.736a3.902 3.902 0 0 0-.364.561c-.119.221-.21.458-.392.931l-2.846 7.399zm0 0 2.744-7.135c.196-.511.295-.766.463-.883a.665.665 0 0 1 .505-.107c.201.038.395.232.782.619l3.012 3.012c.387.387.58.58.619.782a.665.665 0 0 1-.107.505c-.117.168-.372.267-.883.463l-7.135 2.744z" />
        </symbol>
        <!-- КАРАНДАШ БІЛИЙ-->
        <symbol id="icon-pencil-02" viewBox="0 0 32 32">
            <path fill="none" stroke="white" stroke-linejoin="round" stroke-linecap="round" stroke-width="2.6"
                d="m3.333 28.667 7.399-2.846c.473-.182.71-.273.931-.392.197-.106.384-.227.56-.364.198-.154.378-.333.736-.692l15.04-15.04A3.77 3.77 0 1 0 22.666 4L7.626 19.04c-.359.359-.538.538-.692.736a3.902 3.902 0 0 0-.364.561c-.119.221-.21.458-.392.931l-2.846 7.399zm0 0 2.744-7.135c.196-.511.295-.766.463-.883a.665.665 0 0 1 .505-.107c.201.038.395.232.782.619l3.012 3.012c.387.387.58.58.619.782a.665.665 0 0 1-.107.505c-.117.168-.372.267-.883.463l-7.135 2.744z" />
        </symbol>
        <!-- СОНЦЕ  -->
        <symbol id="icon-sun" viewBox="0 0 32 32">
            <path fill="#3e85f3" style="fill:var(--color2, #3e85f3)"
                d="M9.324 16c0 3.681 2.995 6.676 6.676 6.676s6.676-2.995 6.676-6.676S19.681 9.324 16 9.324 9.324 12.319 9.324 16zM16 11.991c2.211 0 4.009 1.799 4.009 4.009S18.21 20.009 16 20.009c-2.211 0-4.009-1.799-4.009-4.009S13.79 11.991 16 11.991zm-1.336 13.342h2.667v4h-2.667v-4zm0-22.666h2.667v4h-2.667v-4zm-12 12h4v2.667h-4v-2.667zm22.667 0h4v2.667h-4v-2.667zM5.625 24.484l2.827-2.829 1.887 1.885-2.827 2.829-1.887-1.885zM21.653 8.459l2.829-2.829 1.885 1.885-2.829 2.829-1.885-1.885zM8.456 10.345 5.627 7.516l1.887-1.885 2.827 2.829-1.884 1.885zm17.912 14.14-1.885 1.885-2.829-2.829 1.885-1.885 2.829 2.829z" />
        </symbol>
        <!-- СМІТНИК -->
        <symbol id="icon-trash-04" viewBox="0 0 32 32">
            <path fill="none" stroke-linejoin="round" stroke-linecap="round" stroke-width="2.6"
                d="M12 4h8M4 8h24M6.667 8l.801 12.018c.149 2.231.223 3.347.588 4.243a6 6 0 0 0 3.672 3.435c.919.304 2.037.304 4.273.304 2.236 0 3.354 0 4.273-.304a5.999 5.999 0 0 0 3.671-3.435c.365-.896.439-2.012.588-4.243L25.334 8" />
        </symbol>
        <!-- ЮЗЕР ЧЕК -->
        <symbol id="icon-user-check-01" viewBox="0 0 32 32">
            <path fill="none" stroke="#84828a" style="stroke:var(--color1, #84828a)" stroke-linejoin="round"
                stroke-linecap="round" stroke-width="2.667"
                d="M21.333 24 24 26.667l5.333-5.333M16 20.667h-6c-1.861 0-2.791 0-3.548.23a5.331 5.331 0 0 0-3.555 3.556c-.23.757-.23 1.687-.23 3.548v0M13.333 16a6 6 0 1 0 0-12 6 6 0 0 0 0 12z" />
        </symbol>
        <!-- ЮЗЕР ЧЕК СИНІЙ -->
        <symbol id="icon-user-check-01-1" viewBox="0 0 32 32">
            <path fill="none" stroke="#3e85f3" style="stroke:var(--color2, #3e85f3)" stroke-linejoin="round"
                stroke-linecap="round" stroke-width="2.667"
                d="M21.333 24 24 26.667l5.333-5.333M16 20.667h-6c-1.861 0-2.791 0-3.548.23a5.331 5.331 0 0 0-3.555 3.556c-.23.757-.23 1.687-.23 3.548v0M13.333 16a6 6 0 1 0 0-12 6 6 0 0 0 0 12z" />
        </symbol>
        <!-- СИНІЙ ЮЗЕР ДЛЯ БІЛОЇ ТЕМИ -->
        <symbol id="icon-ph_user" viewBox="0 0 32 32">
            <path fill="#3e85f3" style="fill:var(--color1, #3e85f3)" opacity=".18"
                d="M28.865 26.5c-1.904-3.291-4.838-5.651-8.261-6.77a9.005 9.005 0 0 0 4.074-10.121 9.002 9.002 0 0 0-14.133-4.771 9.002 9.002 0 0 0-2.894 10.519 9.004 9.004 0 0 0 3.745 4.373c-3.424 1.118-6.358 3.478-8.261 6.77a.999.999 0 0 0 .055 1.127 1.01 1.01 0 0 0 .673.389 1 1 0 0 0 1.004-.515c2.355-4.07 6.517-6.5 11.134-6.5s8.779 2.43 11.134 6.5a.995.995 0 0 0 .608.485 1.002 1.002 0 0 0 1.241-.717.997.997 0 0 0-.117-.769zM9 12a7.002 7.002 0 0 1 8.366-6.865A6.999 6.999 0 1 1 9.001 12z" />
        </symbol>
        <!-- БІЛИЙ ЮЗЕР ДЛЯ ЧОРНОЇ ТЕМИ -->
        <symbol id="icon-ph_user-1" viewBox="0 0 32 32">
            <path fill="#fff" style="fill:var(--color2, #fff)" opacity=".18"
                d="M28.865 26.5c-1.904-3.291-4.838-5.651-8.261-6.77a9.005 9.005 0 0 0 4.074-10.121 9.002 9.002 0 0 0-14.133-4.771 9.002 9.002 0 0 0-2.894 10.519 9.004 9.004 0 0 0 3.745 4.373c-3.424 1.118-6.358 3.478-8.261 6.77a.999.999 0 0 0 .055 1.127 1.01 1.01 0 0 0 .673.389 1 1 0 0 0 1.004-.515c2.355-4.07 6.517-6.5 11.134-6.5s8.779 2.43 11.134 6.5a.995.995 0 0 0 .608.485 1.002 1.002 0 0 0 1.241-.717.997.997 0 0 0-.117-.769zM9 12a7.002 7.002 0 0 1 8.366-6.865A6.999 6.999 0 1 1 9.001 12z" />
        </symbol>
        <!-- Log-In-rigth -->
        <symbol id="icon-log-in-01" viewBox="0 0 32 32">
            <path fill="none" stroke="" style=""
                stroke-linecap="round" stroke-width="2.526"
                d="M19.789 4.632h1.516c2.122 0 3.183 0 3.994.413a3.786 3.786 0 0 1 1.656 1.656c.413.811.413 1.872.413 3.994v10.611c0 2.122 0 3.183-.413 3.994a3.786 3.786 0 0 1-1.656 1.656c-.811.413-1.872.413-3.994.413h-1.516M13.474 9.684 19.79 16m-.001 0-6.316 6.316M19.789 16H4.631" />
        </symbol>
        <!-- STAR -->
        <symbol id="icon-Vector" viewBox="0 0 32 32">
            <path fill="#ffac33" style="fill:var(--color2, #ffac33)"
                d="M24.741 32c-.38 0-.758-.122-1.084-.365l-7.656-5.739-7.656 5.739c-.317.239-.698.366-1.089.365s-.771-.132-1.087-.373c-.316-.24-.552-.577-.673-.965s-.124-.805-.005-1.194l2.856-9.633-7.588-5.589c-.314-.243-.548-.582-.668-.971s-.119-.807.001-1.196c.121-.388.356-.726.671-.966s.695-.372 1.085-.374l9.398-.015 2.992-9.394c.123-.387.36-.724.677-.962s.697-.367 1.087-.367.771.128 1.087.367.553.575.677.962l2.941 9.394 9.446.015c.391.002.771.133 1.086.374s.55.58.671.968.121.807.002 1.196-.353.728-.668.97l-7.588 5.589 2.855 9.633c.119.389.117.806-.004 1.194s-.357.725-.673.965a1.792 1.792 0 0 1-1.092.373z" />
        </symbol>
        <!-- arrow Left -->
        <symbol id="icon-Vector-1" viewBox="0 0 219 32">
            <path
                d="m28.273 25.301-10.482-7.128 199.352-.006V12.59l-198.103.006 9.874-5.675-2.777-4.835L3.413 15.142l21.723 14.771 3.137-4.612z" />
        </symbol>
        <!-- arrow Rigth -->
        <symbol id="icon-Vector-2" viewBox="0 0 219 32">
            <path
                d="m191.156 5.457 10.482 7.128-199.352.006v5.577l198.103-.006-9.874 5.675 2.778 4.835 22.724-13.056L194.294.845l-3.137 4.612z" />
        </symbol>
        <!-- STAR NO COLOR -->
        <symbol id="icon--" viewBox="0 0 32 32">
            <path fill="#cec9c1" style="fill:var(--color3, #cec9c1)"
                d="M24.741 32c-.38 0-.759-.122-1.084-.365l-7.656-5.739-7.656 5.739c-.317.239-.698.366-1.089.365s-.771-.132-1.087-.373c-.316-.24-.552-.577-.673-.965s-.124-.805-.005-1.194l2.856-9.633-7.588-5.589c-.314-.243-.548-.582-.668-.971s-.119-.807.001-1.196c.121-.388.356-.726.671-.966s.695-.372 1.085-.374l9.398-.015 2.992-9.394c.123-.387.36-.724.677-.962s.697-.367 1.087-.367.771.128 1.087.367.553.575.677.962l2.941 9.394 9.446.015c.391.002.771.133 1.086.374s.55.58.671.968.121.807.002 1.196-.353.728-.668.97l-7.588 5.589 2.855 9.633c.119.389.117.806-.004 1.194s-.357.725-.673.965a1.792 1.792 0 0 1-1.092.373z" />
        </symbol>

        <!--PLUS WITHOUT CIRCLE-->
        <symbol id="icon-plus">
            <svg xmlns="http://www.w3.org/2000/svg" width="16" height="16" fill="none">
                <path stroke-linecap="round" stroke-linejoin="round" stroke-width="2"
                    d="M8 1v14M1 8h14" />
            </svg>
        </symbol>

        <!--PLUS WITHOUT CIRCLE WHITE -->
        <symbol id="icon-plus-white">
            <svg xmlns="http://www.w3.org/2000/svg" width="16" height="16" fill="none">
                <path stroke="#fff" stroke-linecap="round" stroke-linejoin="round" stroke-width="2"
                    d="M8 1v14M1 8h14" />
            </svg>
        </symbol>
        <!-- Add icon -->
        <symbol id="icon-add" viewBox="0 0 32 32">
            <path stroke-linejoin="round" stroke-linecap="round" stroke-miterlimit="4" stroke-width="3.5556"
                d="M16 6.667v18.667"></path>
            <path stroke-linejoin="round" stroke-linecap="round" stroke-miterlimit="4" stroke-width="3.5556"
                d="M6.667 16h18.667"></path>

        </symbol>
    </defs>
</svg>